<svg xmlns="http://www.w3.org/2000/svg" xmlns:xlink="http://www.w3.org/1999/xlink" id="图层_1" x="0" y="0" version="1.1" viewBox="0 0 150 37" xml:space="preserve" style="enable-background:new 0 0 150 37"><style type="text/css">.st0{clip-path:url(#SVGID_2_)}.st0,.st1{fill:#f39c12}.st2{font-family:&apos;MicrosoftYaHei-Bold&apos;}.st3{font-size:29px}</style><g><g><g><defs><rect id="SVGID_1_" width="37.2" height="31.7" x="2.7" y="3"/></defs><clipPath id="SVGID_2_"><use xlink:href="#SVGID_1_" style="overflow:visible"/></clipPath><path d="M10.6,3h9.2l-6.3,8.3L10.6,3z M2.7,12.1l6.4-8.3l2.9,8.3H2.7z M2.8,13.7h9.8l6.6,19.7L2.8,13.7z M14.8,12.1 l6.6-8.6l6.6,8.6L14.8,12.1L14.8,12.1z M14.3,13.7h14.1l-7.1,20.9L14.3,13.7z M22.9,3h9.2l-2.9,8.3L22.9,3z M30.6,12.1l2.9-8.3 l6.5,8.3H30.6z M30,13.7h9.8L23.4,33.4L30,13.7z" class="st0"/></g></g></g><text class="st1 st2 st3" transform="matrix(1 0 0 1 46 28)">PRO</text></svg>